<mxfile host="app.diagrams.net" modified="2023-05-04T16:22:50.597Z" agent="Mozilla/5.0 (Windows NT 10.0; Win64; x64) AppleWebKit/537.36 (KHTML, like Gecko) Chrome/112.0.0.0 Safari/537.36" etag="tqITkumeGp8Q4unBRlWb" version="21.2.8" type="device">
  <diagram id="C5RBs43oDa-KdzZeNtuy" name="Page-1">
    <mxGraphModel dx="921" dy="1106" grid="1" gridSize="10" guides="1" tooltips="1" connect="1" arrows="1" fold="1" page="1" pageScale="1" pageWidth="827" pageHeight="1169" math="0" shadow="0">
      <root>
        <mxCell id="WIyWlLk6GJQsqaUBKTNV-0" />
        <mxCell id="WIyWlLk6GJQsqaUBKTNV-1" parent="WIyWlLk6GJQsqaUBKTNV-0" />
        <mxCell id="6OChiqeG2Fh9RAyOYw9k-49" value="accesses" style="edgeStyle=orthogonalEdgeStyle;rounded=0;orthogonalLoop=1;jettySize=auto;html=1;exitX=0.25;exitY=0;exitDx=0;exitDy=0;entryX=0.5;entryY=1;entryDx=0;entryDy=0;" edge="1" parent="WIyWlLk6GJQsqaUBKTNV-1" source="zkfFHV4jXpPFQw0GAbJ--0" target="6OChiqeG2Fh9RAyOYw9k-42">
          <mxGeometry x="0.0922" relative="1" as="geometry">
            <Array as="points">
              <mxPoint x="360" y="430" />
              <mxPoint x="360" y="325" />
              <mxPoint x="260" y="325" />
            </Array>
            <mxPoint as="offset" />
          </mxGeometry>
        </mxCell>
        <mxCell id="6OChiqeG2Fh9RAyOYw9k-50" value="accesses" style="edgeStyle=orthogonalEdgeStyle;rounded=0;orthogonalLoop=1;jettySize=auto;html=1;exitX=0;exitY=0;exitDx=0;exitDy=0;entryX=0.5;entryY=1;entryDx=0;entryDy=0;" edge="1" parent="WIyWlLk6GJQsqaUBKTNV-1" source="zkfFHV4jXpPFQw0GAbJ--0" target="6OChiqeG2Fh9RAyOYw9k-41">
          <mxGeometry x="0.3096" relative="1" as="geometry">
            <Array as="points">
              <mxPoint x="200" y="430" />
              <mxPoint x="200" y="325" />
              <mxPoint x="100" y="325" />
            </Array>
            <mxPoint as="offset" />
          </mxGeometry>
        </mxCell>
        <mxCell id="zkfFHV4jXpPFQw0GAbJ--0" value="EEGData / ERPData" style="swimlane;fontStyle=2;align=center;verticalAlign=top;childLayout=stackLayout;horizontal=1;startSize=26;horizontalStack=0;resizeParent=1;resizeLast=0;collapsible=1;marginBottom=0;rounded=0;shadow=0;strokeWidth=1;" parent="WIyWlLk6GJQsqaUBKTNV-1" vertex="1">
          <mxGeometry x="330" y="430" width="210" height="570" as="geometry">
            <mxRectangle x="230" y="140" width="160" height="26" as="alternateBounds" />
          </mxGeometry>
        </mxCell>
        <mxCell id="zkfFHV4jXpPFQw0GAbJ--1" value="Settings including max channels, &#xa;windows, timeout, etc." style="text;align=left;verticalAlign=top;spacingLeft=4;spacingRight=4;overflow=hidden;rotatable=0;points=[[0,0.5],[1,0.5]];portConstraint=eastwest;" parent="zkfFHV4jXpPFQw0GAbJ--0" vertex="1">
          <mxGeometry y="26" width="210" height="44" as="geometry" />
        </mxCell>
        <mxCell id="6OChiqeG2Fh9RAyOYw9k-16" value="EEG info including channel types, &#xa;labels, units, headset, sampling rate.&#xa;" style="text;align=left;verticalAlign=top;spacingLeft=4;spacingRight=4;overflow=hidden;rotatable=0;points=[[0,0.5],[1,0.5]];portConstraint=eastwest;" vertex="1" parent="zkfFHV4jXpPFQw0GAbJ--0">
          <mxGeometry y="70" width="210" height="44" as="geometry" />
        </mxCell>
        <mxCell id="VehVQyyuWz1h-YvdvVy--43" value="Marker info including markers and &#xa;their timestamps both ingoing and &#xa;outgoing." style="text;align=left;verticalAlign=top;spacingLeft=4;spacingRight=4;overflow=hidden;rotatable=0;points=[[0,0.5],[1,0.5]];portConstraint=eastwest;" vertex="1" parent="zkfFHV4jXpPFQw0GAbJ--0">
          <mxGeometry y="114" width="210" height="60" as="geometry" />
        </mxCell>
        <mxCell id="VehVQyyuWz1h-YvdvVy--44" value="Structured EEG including # windows,&#xa;# samples, raw structured data, and&#xa;processed structured data.&#xa;" style="text;align=left;verticalAlign=top;spacingLeft=4;spacingRight=4;overflow=hidden;rotatable=0;points=[[0,0.5],[1,0.5]];portConstraint=eastwest;" vertex="1" parent="zkfFHV4jXpPFQw0GAbJ--0">
          <mxGeometry y="174" width="210" height="56" as="geometry" />
        </mxCell>
        <mxCell id="VehVQyyuWz1h-YvdvVy--45" value="Classifier object." style="text;align=left;verticalAlign=top;spacingLeft=4;spacingRight=4;overflow=hidden;rotatable=0;points=[[0,0.5],[1,0.5]];portConstraint=eastwest;" vertex="1" parent="zkfFHV4jXpPFQw0GAbJ--0">
          <mxGeometry y="230" width="210" height="24" as="geometry" />
        </mxCell>
        <mxCell id="zkfFHV4jXpPFQw0GAbJ--4" value="" style="line;html=1;strokeWidth=1;align=left;verticalAlign=middle;spacingTop=-1;spacingLeft=3;spacingRight=3;rotatable=0;labelPosition=right;points=[];portConstraint=eastwest;" parent="zkfFHV4jXpPFQw0GAbJ--0" vertex="1">
          <mxGeometry y="254" width="210" height="8" as="geometry" />
        </mxCell>
        <mxCell id="zkfFHV4jXpPFQw0GAbJ--5" value="edit_settings&#xa;" style="text;align=left;verticalAlign=top;spacingLeft=4;spacingRight=4;overflow=hidden;rotatable=0;points=[[0,0.5],[1,0.5]];portConstraint=eastwest;" parent="zkfFHV4jXpPFQw0GAbJ--0" vertex="1">
          <mxGeometry y="262" width="210" height="24" as="geometry" />
        </mxCell>
        <mxCell id="VehVQyyuWz1h-YvdvVy--4" value="load_offline_eeg_data" style="text;align=left;verticalAlign=top;spacingLeft=4;spacingRight=4;overflow=hidden;rotatable=0;points=[[0,0.5],[1,0.5]];portConstraint=eastwest;" vertex="1" parent="zkfFHV4jXpPFQw0GAbJ--0">
          <mxGeometry y="286" width="210" height="24" as="geometry" />
        </mxCell>
        <mxCell id="VehVQyyuWz1h-YvdvVy--5" value="get_info_from_file" style="text;align=left;verticalAlign=top;spacingLeft=4;spacingRight=4;overflow=hidden;rotatable=0;points=[[0,0.5],[1,0.5]];portConstraint=eastwest;" vertex="1" parent="zkfFHV4jXpPFQw0GAbJ--0">
          <mxGeometry y="310" width="210" height="24" as="geometry" />
        </mxCell>
        <mxCell id="VehVQyyuWz1h-YvdvVy--6" value="stream_online_eeg_data" style="text;align=left;verticalAlign=top;spacingLeft=4;spacingRight=4;overflow=hidden;rotatable=0;points=[[0,0.5],[1,0.5]];portConstraint=eastwest;" vertex="1" parent="zkfFHV4jXpPFQw0GAbJ--0">
          <mxGeometry y="334" width="210" height="24" as="geometry" />
        </mxCell>
        <mxCell id="VehVQyyuWz1h-YvdvVy--7" value="get_info_from_stream" style="text;align=left;verticalAlign=top;spacingLeft=4;spacingRight=4;overflow=hidden;rotatable=0;points=[[0,0.5],[1,0.5]];portConstraint=eastwest;" vertex="1" parent="zkfFHV4jXpPFQw0GAbJ--0">
          <mxGeometry y="358" width="210" height="24" as="geometry" />
        </mxCell>
        <mxCell id="VehVQyyuWz1h-YvdvVy--8" value="pull_data_from_stream" style="text;align=left;verticalAlign=top;spacingLeft=4;spacingRight=4;overflow=hidden;rotatable=0;points=[[0,0.5],[1,0.5]];portConstraint=eastwest;" vertex="1" parent="zkfFHV4jXpPFQw0GAbJ--0">
          <mxGeometry y="382" width="210" height="24" as="geometry" />
        </mxCell>
        <mxCell id="VehVQyyuWz1h-YvdvVy--19" value="save_data*" style="text;align=left;verticalAlign=top;spacingLeft=4;spacingRight=4;overflow=hidden;rotatable=0;points=[[0,0.5],[1,0.5]];portConstraint=eastwest;" vertex="1" parent="zkfFHV4jXpPFQw0GAbJ--0">
          <mxGeometry y="406" width="210" height="24" as="geometry" />
        </mxCell>
        <mxCell id="VehVQyyuWz1h-YvdvVy--9" value="mne_export_as_raw*" style="text;align=left;verticalAlign=top;spacingLeft=4;spacingRight=4;overflow=hidden;rotatable=0;points=[[0,0.5],[1,0.5]];portConstraint=eastwest;" vertex="1" parent="zkfFHV4jXpPFQw0GAbJ--0">
          <mxGeometry y="430" width="210" height="20" as="geometry" />
        </mxCell>
        <mxCell id="VehVQyyuWz1h-YvdvVy--14" value="mne_export_as_epochs*" style="text;align=left;verticalAlign=top;spacingLeft=4;spacingRight=4;overflow=hidden;rotatable=0;points=[[0,0.5],[1,0.5]];portConstraint=eastwest;" vertex="1" parent="zkfFHV4jXpPFQw0GAbJ--0">
          <mxGeometry y="450" width="210" height="20" as="geometry" />
        </mxCell>
        <mxCell id="VehVQyyuWz1h-YvdvVy--15" value="mne_export_resting_state_as_raw*" style="text;align=left;verticalAlign=top;spacingLeft=4;spacingRight=4;overflow=hidden;rotatable=0;points=[[0,0.5],[1,0.5]];portConstraint=eastwest;" vertex="1" parent="zkfFHV4jXpPFQw0GAbJ--0">
          <mxGeometry y="470" width="210" height="20" as="geometry" />
        </mxCell>
        <mxCell id="VehVQyyuWz1h-YvdvVy--16" value="preprocessing" style="text;align=left;verticalAlign=top;spacingLeft=4;spacingRight=4;overflow=hidden;rotatable=0;points=[[0,0.5],[1,0.5]];portConstraint=eastwest;" vertex="1" parent="zkfFHV4jXpPFQw0GAbJ--0">
          <mxGeometry y="490" width="210" height="20" as="geometry" />
        </mxCell>
        <mxCell id="VehVQyyuWz1h-YvdvVy--17" value="artefact_rejection" style="text;align=left;verticalAlign=top;spacingLeft=4;spacingRight=4;overflow=hidden;rotatable=0;points=[[0,0.5],[1,0.5]];portConstraint=eastwest;" vertex="1" parent="zkfFHV4jXpPFQw0GAbJ--0">
          <mxGeometry y="510" width="210" height="20" as="geometry" />
        </mxCell>
        <mxCell id="VehVQyyuWz1h-YvdvVy--18" value="package_resting_state_data" style="text;align=left;verticalAlign=top;spacingLeft=4;spacingRight=4;overflow=hidden;rotatable=0;points=[[0,0.5],[1,0.5]];portConstraint=eastwest;" vertex="1" parent="zkfFHV4jXpPFQw0GAbJ--0">
          <mxGeometry y="530" width="210" height="20" as="geometry" />
        </mxCell>
        <mxCell id="VehVQyyuWz1h-YvdvVy--20" value=" main&#xa;" style="text;align=left;verticalAlign=top;spacingLeft=4;spacingRight=4;overflow=hidden;rotatable=0;points=[[0,0.5],[1,0.5]];portConstraint=eastwest;" vertex="1" parent="zkfFHV4jXpPFQw0GAbJ--0">
          <mxGeometry y="550" width="210" height="20" as="geometry" />
        </mxCell>
        <mxCell id="VehVQyyuWz1h-YvdvVy--22" value="* = incomplete or likely broken" style="rounded=0;whiteSpace=wrap;html=1;" vertex="1" parent="WIyWlLk6GJQsqaUBKTNV-1">
          <mxGeometry x="35" y="20" width="230" height="30" as="geometry" />
        </mxCell>
        <mxCell id="6OChiqeG2Fh9RAyOYw9k-6" value="eeg" style="edgeStyle=orthogonalEdgeStyle;rounded=0;orthogonalLoop=1;jettySize=auto;html=1;exitX=1;exitY=0.5;exitDx=0;exitDy=0;entryX=0.5;entryY=0;entryDx=0;entryDy=0;" edge="1" parent="WIyWlLk6GJQsqaUBKTNV-1" source="6OChiqeG2Fh9RAyOYw9k-3" target="6OChiqeG2Fh9RAyOYw9k-5">
          <mxGeometry relative="1" as="geometry" />
        </mxCell>
        <mxCell id="6OChiqeG2Fh9RAyOYw9k-3" value="Headset" style="html=1;whiteSpace=wrap;" vertex="1" parent="WIyWlLk6GJQsqaUBKTNV-1">
          <mxGeometry x="50" y="470" width="110" height="50" as="geometry" />
        </mxCell>
        <mxCell id="6OChiqeG2Fh9RAyOYw9k-7" value="markers" style="edgeStyle=orthogonalEdgeStyle;rounded=0;orthogonalLoop=1;jettySize=auto;html=1;entryX=0.5;entryY=1;entryDx=0;entryDy=0;strokeColor=default;" edge="1" parent="WIyWlLk6GJQsqaUBKTNV-1" source="6OChiqeG2Fh9RAyOYw9k-4" target="6OChiqeG2Fh9RAyOYw9k-5">
          <mxGeometry relative="1" as="geometry" />
        </mxCell>
        <mxCell id="6OChiqeG2Fh9RAyOYw9k-4" value="Unity" style="html=1;whiteSpace=wrap;" vertex="1" parent="WIyWlLk6GJQsqaUBKTNV-1">
          <mxGeometry x="50" y="590" width="110" height="50" as="geometry" />
        </mxCell>
        <mxCell id="6OChiqeG2Fh9RAyOYw9k-9" value="selections" style="edgeStyle=orthogonalEdgeStyle;rounded=0;orthogonalLoop=1;jettySize=auto;html=1;exitX=0.75;exitY=1;exitDx=0;exitDy=0;entryX=1;entryY=0.75;entryDx=0;entryDy=0;" edge="1" parent="WIyWlLk6GJQsqaUBKTNV-1" source="6OChiqeG2Fh9RAyOYw9k-5" target="6OChiqeG2Fh9RAyOYw9k-4">
          <mxGeometry relative="1" as="geometry" />
        </mxCell>
        <mxCell id="6OChiqeG2Fh9RAyOYw9k-17" style="edgeStyle=orthogonalEdgeStyle;rounded=0;orthogonalLoop=1;jettySize=auto;html=1;exitX=1;exitY=0.25;exitDx=0;exitDy=0;entryX=0.01;entryY=-0.033;entryDx=0;entryDy=0;entryPerimeter=0;" edge="1" parent="WIyWlLk6GJQsqaUBKTNV-1" source="6OChiqeG2Fh9RAyOYw9k-5" target="VehVQyyuWz1h-YvdvVy--43">
          <mxGeometry relative="1" as="geometry" />
        </mxCell>
        <mxCell id="6OChiqeG2Fh9RAyOYw9k-5" value="LSL" style="html=1;whiteSpace=wrap;" vertex="1" parent="WIyWlLk6GJQsqaUBKTNV-1">
          <mxGeometry x="190" y="530" width="110" height="50" as="geometry" />
        </mxCell>
        <mxCell id="6OChiqeG2Fh9RAyOYw9k-15" style="edgeStyle=orthogonalEdgeStyle;rounded=0;orthogonalLoop=1;jettySize=auto;html=1;exitX=0;exitY=0.5;exitDx=0;exitDy=0;entryX=1;entryY=0.75;entryDx=0;entryDy=0;" edge="1" parent="WIyWlLk6GJQsqaUBKTNV-1" source="VehVQyyuWz1h-YvdvVy--43" target="6OChiqeG2Fh9RAyOYw9k-5">
          <mxGeometry relative="1" as="geometry">
            <Array as="points">
              <mxPoint x="340" y="590" />
              <mxPoint x="340" y="568" />
            </Array>
          </mxGeometry>
        </mxCell>
        <mxCell id="6OChiqeG2Fh9RAyOYw9k-18" value="Classifier (extends to many different&#xa;kinds of classifiers for ERP, MI, Switch*,&#xa;SSVEP*, etc.)" style="swimlane;fontStyle=2;align=center;verticalAlign=top;childLayout=stackLayout;horizontal=1;startSize=50;horizontalStack=0;resizeParent=1;resizeLast=0;collapsible=1;marginBottom=0;rounded=0;shadow=0;strokeWidth=1;" vertex="1" parent="WIyWlLk6GJQsqaUBKTNV-1">
          <mxGeometry x="600" y="650" width="220" height="330" as="geometry">
            <mxRectangle x="230" y="140" width="160" height="26" as="alternateBounds" />
          </mxGeometry>
        </mxCell>
        <mxCell id="6OChiqeG2Fh9RAyOYw9k-19" value="X (training data)" style="text;align=left;verticalAlign=top;spacingLeft=4;spacingRight=4;overflow=hidden;rotatable=0;points=[[0,0.5],[1,0.5]];portConstraint=eastwest;" vertex="1" parent="6OChiqeG2Fh9RAyOYw9k-18">
          <mxGeometry y="50" width="220" height="20" as="geometry" />
        </mxCell>
        <mxCell id="6OChiqeG2Fh9RAyOYw9k-66" value="y (training labels)" style="text;align=left;verticalAlign=top;spacingLeft=4;spacingRight=4;overflow=hidden;rotatable=0;points=[[0,0.5],[1,0.5]];portConstraint=eastwest;" vertex="1" parent="6OChiqeG2Fh9RAyOYw9k-18">
          <mxGeometry y="70" width="220" height="20" as="geometry" />
        </mxCell>
        <mxCell id="6OChiqeG2Fh9RAyOYw9k-74" value="preds (predicted labels)" style="text;align=left;verticalAlign=top;spacingLeft=4;spacingRight=4;overflow=hidden;rotatable=0;points=[[0,0.5],[1,0.5]];portConstraint=eastwest;" vertex="1" parent="6OChiqeG2Fh9RAyOYw9k-18">
          <mxGeometry y="90" width="220" height="20" as="geometry" />
        </mxCell>
        <mxCell id="6OChiqeG2Fh9RAyOYw9k-67" value="cv (sklearn cross validation splitter)" style="text;align=left;verticalAlign=top;spacingLeft=4;spacingRight=4;overflow=hidden;rotatable=0;points=[[0,0.5],[1,0.5]];portConstraint=eastwest;" vertex="1" parent="6OChiqeG2Fh9RAyOYw9k-18">
          <mxGeometry y="110" width="220" height="20" as="geometry" />
        </mxCell>
        <mxCell id="6OChiqeG2Fh9RAyOYw9k-68" value="clf_model (untrained sklearn classifer)" style="text;align=left;verticalAlign=top;spacingLeft=4;spacingRight=4;overflow=hidden;rotatable=0;points=[[0,0.5],[1,0.5]];portConstraint=eastwest;" vertex="1" parent="6OChiqeG2Fh9RAyOYw9k-18">
          <mxGeometry y="130" width="220" height="20" as="geometry" />
        </mxCell>
        <mxCell id="6OChiqeG2Fh9RAyOYw9k-69" value="clf (trained sklearn classifer)" style="text;align=left;verticalAlign=top;spacingLeft=4;spacingRight=4;overflow=hidden;rotatable=0;points=[[0,0.5],[1,0.5]];portConstraint=eastwest;" vertex="1" parent="6OChiqeG2Fh9RAyOYw9k-18">
          <mxGeometry y="150" width="220" height="20" as="geometry" />
        </mxCell>
        <mxCell id="6OChiqeG2Fh9RAyOYw9k-70" value="accuracy" style="text;align=left;verticalAlign=top;spacingLeft=4;spacingRight=4;overflow=hidden;rotatable=0;points=[[0,0.5],[1,0.5]];portConstraint=eastwest;" vertex="1" parent="6OChiqeG2Fh9RAyOYw9k-18">
          <mxGeometry y="170" width="220" height="20" as="geometry" />
        </mxCell>
        <mxCell id="6OChiqeG2Fh9RAyOYw9k-71" value="precision" style="text;align=left;verticalAlign=top;spacingLeft=4;spacingRight=4;overflow=hidden;rotatable=0;points=[[0,0.5],[1,0.5]];portConstraint=eastwest;" vertex="1" parent="6OChiqeG2Fh9RAyOYw9k-18">
          <mxGeometry y="190" width="220" height="20" as="geometry" />
        </mxCell>
        <mxCell id="6OChiqeG2Fh9RAyOYw9k-72" value="recalll" style="text;align=left;verticalAlign=top;spacingLeft=4;spacingRight=4;overflow=hidden;rotatable=0;points=[[0,0.5],[1,0.5]];portConstraint=eastwest;" vertex="1" parent="6OChiqeG2Fh9RAyOYw9k-18">
          <mxGeometry y="210" width="220" height="20" as="geometry" />
        </mxCell>
        <mxCell id="6OChiqeG2Fh9RAyOYw9k-73" value="cm (confusion matrix)" style="text;align=left;verticalAlign=top;spacingLeft=4;spacingRight=4;overflow=hidden;rotatable=0;points=[[0,0.5],[1,0.5]];portConstraint=eastwest;" vertex="1" parent="6OChiqeG2Fh9RAyOYw9k-18">
          <mxGeometry y="230" width="220" height="20" as="geometry" />
        </mxCell>
        <mxCell id="6OChiqeG2Fh9RAyOYw9k-24" value="" style="line;html=1;strokeWidth=1;align=left;verticalAlign=middle;spacingTop=-1;spacingLeft=3;spacingRight=3;rotatable=0;labelPosition=right;points=[];portConstraint=eastwest;" vertex="1" parent="6OChiqeG2Fh9RAyOYw9k-18">
          <mxGeometry y="250" width="220" height="8" as="geometry" />
        </mxCell>
        <mxCell id="6OChiqeG2Fh9RAyOYw9k-26" value="set_settings" style="text;align=left;verticalAlign=top;spacingLeft=4;spacingRight=4;overflow=hidden;rotatable=0;points=[[0,0.5],[1,0.5]];portConstraint=eastwest;" vertex="1" parent="6OChiqeG2Fh9RAyOYw9k-18">
          <mxGeometry y="258" width="220" height="24" as="geometry" />
        </mxCell>
        <mxCell id="6OChiqeG2Fh9RAyOYw9k-64" value="fit" style="text;align=left;verticalAlign=top;spacingLeft=4;spacingRight=4;overflow=hidden;rotatable=0;points=[[0,0.5],[1,0.5]];portConstraint=eastwest;" vertex="1" parent="6OChiqeG2Fh9RAyOYw9k-18">
          <mxGeometry y="282" width="220" height="24" as="geometry" />
        </mxCell>
        <mxCell id="6OChiqeG2Fh9RAyOYw9k-65" value="predict" style="text;align=left;verticalAlign=top;spacingLeft=4;spacingRight=4;overflow=hidden;rotatable=0;points=[[0,0.5],[1,0.5]];portConstraint=eastwest;" vertex="1" parent="6OChiqeG2Fh9RAyOYw9k-18">
          <mxGeometry y="306" width="220" height="24" as="geometry" />
        </mxCell>
        <mxCell id="6OChiqeG2Fh9RAyOYw9k-41" value="Signal Processing" style="rounded=0;whiteSpace=wrap;html=1;" vertex="1" parent="WIyWlLk6GJQsqaUBKTNV-1">
          <mxGeometry x="40" y="160" width="120" height="60" as="geometry" />
        </mxCell>
        <mxCell id="6OChiqeG2Fh9RAyOYw9k-42" value="Resting State" style="rounded=0;whiteSpace=wrap;html=1;" vertex="1" parent="WIyWlLk6GJQsqaUBKTNV-1">
          <mxGeometry x="200" y="160" width="120" height="60" as="geometry" />
        </mxCell>
        <mxCell id="6OChiqeG2Fh9RAyOYw9k-43" value="Visuals*" style="rounded=0;whiteSpace=wrap;html=1;" vertex="1" parent="WIyWlLk6GJQsqaUBKTNV-1">
          <mxGeometry x="680" y="160" width="120" height="60" as="geometry" />
        </mxCell>
        <mxCell id="6OChiqeG2Fh9RAyOYw9k-47" value="includes" style="edgeStyle=orthogonalEdgeStyle;rounded=0;orthogonalLoop=1;jettySize=auto;html=1;exitX=0.5;exitY=1;exitDx=0;exitDy=0;entryX=0.39;entryY=-0.005;entryDx=0;entryDy=0;entryPerimeter=0;" edge="1" parent="WIyWlLk6GJQsqaUBKTNV-1" source="6OChiqeG2Fh9RAyOYw9k-45" target="zkfFHV4jXpPFQw0GAbJ--0">
          <mxGeometry relative="1" as="geometry" />
        </mxCell>
        <mxCell id="6OChiqeG2Fh9RAyOYw9k-45" value="BCI Data" style="rounded=0;whiteSpace=wrap;html=1;" vertex="1" parent="WIyWlLk6GJQsqaUBKTNV-1">
          <mxGeometry x="360" y="160" width="120" height="60" as="geometry" />
        </mxCell>
        <mxCell id="6OChiqeG2Fh9RAyOYw9k-48" value="includes" style="edgeStyle=orthogonalEdgeStyle;rounded=0;orthogonalLoop=1;jettySize=auto;html=1;exitX=0.5;exitY=1;exitDx=0;exitDy=0;entryX=0.5;entryY=0;entryDx=0;entryDy=0;" edge="1" parent="WIyWlLk6GJQsqaUBKTNV-1" source="6OChiqeG2Fh9RAyOYw9k-46" target="6OChiqeG2Fh9RAyOYw9k-18">
          <mxGeometry x="-0.1504" relative="1" as="geometry">
            <Array as="points">
              <mxPoint x="580" y="380" />
              <mxPoint x="705" y="380" />
            </Array>
            <mxPoint as="offset" />
          </mxGeometry>
        </mxCell>
        <mxCell id="6OChiqeG2Fh9RAyOYw9k-46" value="Classification" style="rounded=0;whiteSpace=wrap;html=1;" vertex="1" parent="WIyWlLk6GJQsqaUBKTNV-1">
          <mxGeometry x="520" y="160" width="120" height="60" as="geometry" />
        </mxCell>
        <mxCell id="6OChiqeG2Fh9RAyOYw9k-51" value="contains" style="edgeStyle=orthogonalEdgeStyle;rounded=0;orthogonalLoop=1;jettySize=auto;html=1;exitX=1;exitY=0.5;exitDx=0;exitDy=0;entryX=0;entryY=0.122;entryDx=0;entryDy=0;entryPerimeter=0;" edge="1" parent="WIyWlLk6GJQsqaUBKTNV-1" source="VehVQyyuWz1h-YvdvVy--45" target="6OChiqeG2Fh9RAyOYw9k-18">
          <mxGeometry x="-0.1428" y="2" relative="1" as="geometry">
            <mxPoint as="offset" />
          </mxGeometry>
        </mxCell>
        <mxCell id="6OChiqeG2Fh9RAyOYw9k-52" value="A diagram of BCI Essentials Python as it exists today (May 4, 2023)" style="rounded=0;whiteSpace=wrap;html=1;" vertex="1" parent="WIyWlLk6GJQsqaUBKTNV-1">
          <mxGeometry x="290" y="20" width="510" height="30" as="geometry" />
        </mxCell>
        <mxCell id="6OChiqeG2Fh9RAyOYw9k-59" style="edgeStyle=orthogonalEdgeStyle;rounded=0;orthogonalLoop=1;jettySize=auto;html=1;exitX=0.5;exitY=1;exitDx=0;exitDy=0;exitPerimeter=0;entryX=0.5;entryY=0;entryDx=0;entryDy=0;" edge="1" parent="WIyWlLk6GJQsqaUBKTNV-1" source="6OChiqeG2Fh9RAyOYw9k-57" target="6OChiqeG2Fh9RAyOYw9k-46">
          <mxGeometry relative="1" as="geometry">
            <Array as="points">
              <mxPoint x="380" y="140" />
              <mxPoint x="580" y="140" />
            </Array>
          </mxGeometry>
        </mxCell>
        <mxCell id="6OChiqeG2Fh9RAyOYw9k-60" style="edgeStyle=orthogonalEdgeStyle;rounded=0;orthogonalLoop=1;jettySize=auto;html=1;exitX=0.5;exitY=1;exitDx=0;exitDy=0;exitPerimeter=0;entryX=0.5;entryY=0;entryDx=0;entryDy=0;" edge="1" parent="WIyWlLk6GJQsqaUBKTNV-1" source="6OChiqeG2Fh9RAyOYw9k-57" target="6OChiqeG2Fh9RAyOYw9k-45">
          <mxGeometry relative="1" as="geometry">
            <Array as="points">
              <mxPoint x="380" y="140" />
              <mxPoint x="420" y="140" />
            </Array>
          </mxGeometry>
        </mxCell>
        <mxCell id="6OChiqeG2Fh9RAyOYw9k-61" style="edgeStyle=orthogonalEdgeStyle;rounded=0;orthogonalLoop=1;jettySize=auto;html=1;exitX=0.5;exitY=1;exitDx=0;exitDy=0;exitPerimeter=0;entryX=0.5;entryY=0;entryDx=0;entryDy=0;" edge="1" parent="WIyWlLk6GJQsqaUBKTNV-1" source="6OChiqeG2Fh9RAyOYw9k-57" target="6OChiqeG2Fh9RAyOYw9k-42">
          <mxGeometry relative="1" as="geometry">
            <Array as="points">
              <mxPoint x="380" y="140" />
              <mxPoint x="260" y="140" />
            </Array>
          </mxGeometry>
        </mxCell>
        <mxCell id="6OChiqeG2Fh9RAyOYw9k-62" style="edgeStyle=orthogonalEdgeStyle;rounded=0;orthogonalLoop=1;jettySize=auto;html=1;exitX=0.5;exitY=1;exitDx=0;exitDy=0;exitPerimeter=0;entryX=0.5;entryY=0;entryDx=0;entryDy=0;" edge="1" parent="WIyWlLk6GJQsqaUBKTNV-1" source="6OChiqeG2Fh9RAyOYw9k-57" target="6OChiqeG2Fh9RAyOYw9k-41">
          <mxGeometry relative="1" as="geometry">
            <Array as="points">
              <mxPoint x="380" y="140" />
              <mxPoint x="100" y="140" />
            </Array>
          </mxGeometry>
        </mxCell>
        <mxCell id="6OChiqeG2Fh9RAyOYw9k-63" style="edgeStyle=orthogonalEdgeStyle;rounded=0;orthogonalLoop=1;jettySize=auto;html=1;exitX=0.5;exitY=1;exitDx=0;exitDy=0;exitPerimeter=0;entryX=0.5;entryY=0;entryDx=0;entryDy=0;" edge="1" parent="WIyWlLk6GJQsqaUBKTNV-1" source="6OChiqeG2Fh9RAyOYw9k-57" target="6OChiqeG2Fh9RAyOYw9k-43">
          <mxGeometry relative="1" as="geometry" />
        </mxCell>
        <mxCell id="6OChiqeG2Fh9RAyOYw9k-57" value="BCI Essentials Python" style="shape=folder;fontStyle=1;spacingTop=10;tabWidth=40;tabHeight=14;tabPosition=left;html=1;whiteSpace=wrap;" vertex="1" parent="WIyWlLk6GJQsqaUBKTNV-1">
          <mxGeometry x="320" y="70" width="120" height="50" as="geometry" />
        </mxCell>
      </root>
    </mxGraphModel>
  </diagram>
</mxfile>
